# xmcd CD database file
#
# Track frame offsets:
#	150
#	23907
#	46386
#	61438
#	89691
#	110133
#	133845
#	153305
#	171353
#	198897
#	213459
#	229516
#	251974
#
# Disc length: 3566 seconds
#
# Revision: 0
# Processed by: cddbd v1.5.1PL0 Copyright (c) Steve Scherf et al.
# Submitted via: CDex 1.51
#
DISCID=bf0dec0d
DTITLE=Michel Huygen - Música Para la Buena Mesa
DYEAR=1994
DGENRE=New Age
TTITLE0=Azulete
TTITLE1=Folie D'amour
TTITLE2=Numerica
TTITLE3=Deep Illness Of Love
TTITLE4=Tesoros
TTITLE5=Sentimiento Ilimitado
TTITLE6=Macrocosmos
TTITLE7=Ternura
TTITLE8=El Peso De La Amistad
TTITLE9=Venezia
TTITLE10=Impossible Love
TTITLE11=Promenade
TTITLE12=En Ninguna Parte
EXTD=YEAR: 1994
EXTT0=
EXTT1=
EXTT2=
EXTT3=
EXTT4=
EXTT5=
EXTT6=
EXTT7=
EXTT8=
EXTT9=
EXTT10=
EXTT11=
EXTT12=
PLAYORDER=
